<svg xmlns="http://www.w3.org/2000/svg" viewBox="0 0 24.8828125 30.2421875" width="24.8828125" height="30.2421875"><path d="M12.4427 30.2448C19.3227 30.2448 24.8827 24.6748 24.8827 17.8048C24.8827 16.8348 24.0927 16.0348 23.1327 16.0348C22.1627 16.0348 21.3727 16.8348 21.3727 17.8048C21.3727 22.7248 17.3627 26.7148 12.4427 26.7148C7.5227 26.7148 3.5127 22.7248 3.5127 17.8048C3.5127 12.8648 7.5227 8.8748 12.4427 8.8748C12.9927 8.8748 13.5227 8.9148 14.0427 9.0048L10.9927 12.0048C10.6927 12.3048 10.5127 12.6748 10.5127 13.1548C10.5127 14.1048 11.2627 14.8648 12.2227 14.8648C12.7027 14.8648 13.0827 14.6948 13.4027 14.3848L18.9727 8.7348C19.3627 8.3648 19.5327 7.9448 19.5327 7.4548C19.5327 6.9848 19.3327 6.5448 18.9727 6.1748L13.4027 0.5048C13.0827 0.1748 12.6827 0.0048 12.2127 0.0048C11.2627 0.0048 10.5127 0.7748 10.5127 1.7548C10.5127 2.2248 10.6827 2.5948 10.9927 2.8848L13.6427 5.4148C13.2527 5.3848 12.8527 5.3548 12.4427 5.3548C5.5627 5.3548 0.0027 10.9248 0.0027 17.8048C0.0027 24.6748 5.5627 30.2448 12.4427 30.2448Z"/></svg>